<svg id="Capa_1" enable-background="new 0 0 443.294 443.294" height="512" viewBox="0 0 443.294 443.294" width="512" xmlns="http://www.w3.org/2000/svg"><path d="m221.647 443.294c-122.214 0-221.647-99.433-221.647-221.647s99.433-221.647 221.647-221.647 221.647 99.433 221.647 221.647-99.433 221.647-221.647 221.647zm0-415.588c-106.941 0-193.941 87-193.941 193.941s87 193.941 193.941 193.941 193.941-87 193.941-193.941-87-193.941-193.941-193.941z"/><path d="m277.059 332.484c-.041-36.58-21.78-69.495-55.385-83.889l-27.733-11.878v95.753h-27.706v-207.794c0-7.657 6.196-13.853 13.853-13.853h62.338c34.375 0 62.338 27.963 62.338 62.338 0 30.668-22.254 56.224-51.448 61.391 31.791 21.889 51.407 58.253 51.448 97.904.001.001-27.705.028-27.705.028zm-83.118-124.69h48.485c19.102 0 34.632-15.53 34.632-34.632s-15.53-34.632-34.632-34.632h-48.485z"/></svg>